<svg width="53" height="52" viewBox="0 0 53 52" fill="none" xmlns="http://www.w3.org/2000/svg">
<path d="M1.16016 26.6401C0.56014 26.6401 0.0737313 27.1265 0.0737313 27.7266C0.0737313 28.3266 0.56014 28.813 1.16016 28.813V26.6401ZM1.16016 28.813H26.4425V26.6401H1.16016V28.813Z" fill="black"/>
<path d="M51.7277 3.14502C52.3277 3.14502 52.8141 2.65861 52.8141 2.05859C52.8141 1.45858 52.3277 0.972169 51.7277 0.972169V3.14502ZM26.4453 3.14502H51.7277V0.972169H26.4453V3.14502Z" fill="black"/>
<path d="M51.7277 51.6802C52.3277 51.6802 52.8141 51.1938 52.8141 50.5938C52.8141 49.9937 52.3277 49.5073 51.7277 49.5073V51.6802ZM26.4453 51.6802H51.7277V49.5073H26.4453V51.6802Z" fill="black"/>
<line x1="27.5317" y1="1" x2="27.5317" y2="51.5647" stroke="black" stroke-width="2.17285"/>
</svg>
