<svg width="67" height="52" viewBox="0 0 67 52" fill="none" xmlns="http://www.w3.org/2000/svg">
<rect x="1.26355" y="0.454089" width="20.2531" height="35.5352" rx="2.88104" transform="matrix(0.847422 -0.530921 0.315615 0.948887 0.225255 16.2292)" stroke="black" stroke-width="2.17285"/>
<path d="M32.1191 38.9497H39.1533C41.3445 38.9497 43.1208 37.1734 43.1208 34.9822V5.6325C43.1208 3.44133 41.3445 1.66504 39.1533 1.66504H27.8737C25.6825 1.66504 23.9062 3.44134 23.9062 5.63251V13.5708" stroke="black" stroke-width="2.17285" stroke-linecap="round"/>
<path d="M43.7853 41.6398L50.2618 46.4831C52.0166 47.7954 54.0946 47.2082 54.9031 45.1717L64.9629 19.8332C65.7715 17.7967 65.0044 15.082 63.2496 13.7697L52.7437 5.91315C50.9889 4.6009 48.911 5.18805 48.1024 7.22459L45.4191 13.9832" stroke="black" stroke-width="2.17285" stroke-linecap="round"/>
</svg>
