<svg width="45" height="49" viewBox="0 0 45 49" fill="none" xmlns="http://www.w3.org/2000/svg">
<rect x="1.08642" y="8.76318" width="42.0966" height="38.3846" rx="1.98463" stroke="black" stroke-width="2.17285"/>
<rect x="6.65674" y="21.5854" width="4.11699" height="4.11699" rx="1.98463" stroke="black" stroke-width="2.17285"/>
<rect x="6.65674" y="29.9692" width="4.11699" height="4.11699" rx="1.98463" stroke="black" stroke-width="2.17285"/>
<rect x="6.65674" y="38.356" width="4.11699" height="4.11699" rx="1.98463" stroke="black" stroke-width="2.17285"/>
<rect x="15.7622" y="21.5854" width="4.11699" height="4.11699" rx="1.98463" stroke="black" stroke-width="2.17285"/>
<rect x="15.7622" y="29.9692" width="4.11699" height="4.11699" rx="1.98463" stroke="black" stroke-width="2.17285"/>
<rect x="15.7622" y="38.356" width="4.11699" height="4.11699" rx="1.98463" stroke="black" stroke-width="2.17285"/>
<rect x="24.8638" y="21.5854" width="4.11699" height="4.11699" rx="1.98463" stroke="black" stroke-width="2.17285"/>
<rect x="24.8638" y="29.9692" width="4.11699" height="4.11699" rx="1.98463" stroke="black" stroke-width="2.17285"/>
<rect x="24.8638" y="38.356" width="4.11699" height="4.11699" rx="1.98463" stroke="black" stroke-width="2.17285"/>
<rect x="33.981" y="21.5854" width="4.11699" height="4.11699" rx="1.98463" stroke="black" stroke-width="2.17285"/>
<rect x="33.981" y="29.9692" width="4.11699" height="4.11699" rx="1.98463" stroke="black" stroke-width="2.17285"/>
<rect x="33.981" y="38.356" width="4.11699" height="4.11699" rx="1.98463" stroke="black" stroke-width="2.17285"/>
<path d="M5.65234 16.2676H20.6208" stroke="black" stroke-width="2.17285" stroke-linecap="round"/>
<rect x="9.78564" y="1.75146" width="4.11699" height="8.58519" rx="1.98463" stroke="black" stroke-width="2.17285"/>
<rect x="29.1333" y="1.75146" width="4.11699" height="8.58519" rx="1.98463" stroke="black" stroke-width="2.17285"/>
</svg>
