<svg width="65" height="68" viewBox="0 0 65 68" fill="none" xmlns="http://www.w3.org/2000/svg">
<path d="M12.5986 2H11.8834C5.96975 2 1.17578 6.79396 1.17578 12.7076V58.4685C1.17578 62.7637 4.65778 66.2457 8.95304 66.2457V66.2457M12.5986 2V18.3302C12.5986 24.2438 17.3926 29.0378 23.3063 29.0378H38.59C44.5036 29.0378 49.2976 24.2438 49.2976 18.3302V2M12.5986 2H30.9481M49.2976 2V2C52.0956 2 54.7758 3.12624 56.7339 5.1248L60.5776 9.04777C62.5386 11.0492 63.6369 13.7395 63.6369 16.5415V58.4685C63.6369 62.7637 60.1549 66.2457 55.8597 66.2457V66.2457M49.2976 2H40.3051M55.8597 66.2457V47.9311C55.8597 42.0175 51.0657 37.2235 45.152 37.2235H19.6607C13.747 37.2235 8.95304 42.0175 8.95304 47.9311V66.2457M55.8597 66.2457H8.95304M30.9481 2V11.7086C30.9481 14.2924 33.0428 16.3871 35.6266 16.3871V16.3871C38.2105 16.3871 40.3051 14.2924 40.3051 11.7086V2M30.9481 2H40.3051" stroke="black" stroke-width="2.17285"/>
</svg>
