<svg width="65" height="65" viewBox="0 0 65 65" fill="none" xmlns="http://www.w3.org/2000/svg">
<path fill-rule="evenodd" clip-rule="evenodd" d="M32.6107 1.08642C32.6107 0.486409 32.1243 2.62371e-08 31.5243 0C30.9242 -2.62225e-08 30.4378 0.486409 30.4378 1.08642V31.8452H1.08642C0.486409 31.8452 0 32.3316 0 32.9316C0 33.5317 0.486409 34.0181 1.08642 34.0181H30.4378V63.3681C30.4378 63.9682 30.9242 64.4546 31.5243 64.4546C32.1243 64.4546 32.6107 63.9682 32.6107 63.3681V34.0181H63.3681C63.9682 34.0181 64.4546 33.5317 64.4546 32.9316C64.4546 32.3316 63.9682 31.8452 63.3681 31.8452H32.6107V1.08642Z" fill="black"/>
</svg>
