<svg width="53" height="53" viewBox="0 0 53 53" fill="none" xmlns="http://www.w3.org/2000/svg">
<path d="M2 17.082L51.836 17.082" stroke="black" stroke-width="2.17285" stroke-linecap="round"/>
<path d="M2 9.90039L51.836 9.90039" stroke="black" stroke-width="2.17285" stroke-linecap="round"/>
<path d="M32.5445 5.98234H33.6309V5.90837L33.6209 5.83508L32.5445 5.98234ZM18.5972 5.98234C18.5972 6.58235 19.0836 7.06876 19.6836 7.06876C20.2836 7.06876 20.77 6.58235 20.77 5.98234H18.5972ZM33.6309 9.89939V5.98234H31.4581V9.89939H33.6309ZM33.6209 5.83508C33.4947 4.91269 33.1189 3.72515 32.3601 2.74048C31.5763 1.72325 30.3671 0.913575 28.6862 0.913575V3.08642C29.5775 3.08642 30.1903 3.48451 30.639 4.06674C31.1127 4.68153 31.3799 5.48516 31.4681 6.12959L33.6209 5.83508ZM28.6862 0.913575C28.6812 0.913575 28.6762 0.913575 28.6712 0.913575C28.6661 0.913575 28.6611 0.913575 28.6561 0.913575C28.6511 0.913575 28.6461 0.913575 28.6411 0.913575C28.6361 0.913575 28.6311 0.913575 28.6261 0.913575C28.6211 0.913575 28.6161 0.913575 28.6111 0.913575C28.6061 0.913575 28.6011 0.913575 28.5961 0.913575C28.5911 0.913575 28.5861 0.913575 28.5811 0.913575C28.5761 0.913575 28.5711 0.913575 28.5661 0.913575C28.5611 0.913575 28.5562 0.913575 28.5512 0.913575C28.5462 0.913575 28.5412 0.913575 28.5363 0.913575C28.5313 0.913575 28.5263 0.913575 28.5213 0.913575C28.5164 0.913575 28.5114 0.913575 28.5064 0.913575C28.5015 0.913575 28.4965 0.913575 28.4916 0.913575C28.4866 0.913575 28.4816 0.913575 28.4767 0.913575C28.4717 0.913575 28.4668 0.913575 28.4618 0.913575C28.4569 0.913575 28.4519 0.913575 28.447 0.913575C28.442 0.913575 28.4371 0.913575 28.4322 0.913575C28.4272 0.913575 28.4223 0.913575 28.4174 0.913575C28.4124 0.913575 28.4075 0.913575 28.4026 0.913575C28.3976 0.913575 28.3927 0.913575 28.3878 0.913575C28.3829 0.913575 28.3779 0.913575 28.373 0.913575C28.3681 0.913575 28.3632 0.913575 28.3583 0.913575C28.3534 0.913575 28.3484 0.913575 28.3435 0.913575C28.3386 0.913575 28.3337 0.913575 28.3288 0.913575C28.3239 0.913575 28.319 0.913575 28.3141 0.913575C28.3092 0.913575 28.3043 0.913575 28.2994 0.913575C28.2945 0.913575 28.2896 0.913575 28.2848 0.913575C28.2799 0.913575 28.275 0.913575 28.2701 0.913575C28.2652 0.913575 28.2603 0.913575 28.2555 0.913575C28.2506 0.913575 28.2457 0.913575 28.2408 0.913575C28.236 0.913575 28.2311 0.913575 28.2262 0.913575C28.2214 0.913575 28.2165 0.913575 28.2116 0.913575C28.2068 0.913575 28.2019 0.913575 28.1971 0.913575C28.1922 0.913575 28.1873 0.913575 28.1825 0.913575C28.1776 0.913575 28.1728 0.913575 28.1679 0.913575C28.1631 0.913575 28.1583 0.913575 28.1534 0.913575C28.1486 0.913575 28.1437 0.913575 28.1389 0.913575C28.1341 0.913575 28.1292 0.913575 28.1244 0.913575C28.1196 0.913575 28.1147 0.913575 28.1099 0.913575C28.1051 0.913575 28.1003 0.913575 28.0955 0.913575C28.0906 0.913575 28.0858 0.913575 28.081 0.913575C28.0762 0.913575 28.0714 0.913575 28.0666 0.913575C28.0618 0.913575 28.0569 0.913575 28.0521 0.913575C28.0473 0.913575 28.0425 0.913575 28.0377 0.913575C28.0329 0.913575 28.0281 0.913575 28.0234 0.913575C28.0186 0.913575 28.0138 0.913575 28.009 0.913575C28.0042 0.913575 27.9994 0.913575 27.9946 0.913575C27.9898 0.913575 27.9851 0.913575 27.9803 0.913575C27.9755 0.913575 27.9707 0.913575 27.966 0.913575C27.9612 0.913575 27.9564 0.913575 27.9517 0.913575C27.9469 0.913575 27.9421 0.913575 27.9374 0.913575C27.9326 0.913575 27.9278 0.913575 27.9231 0.913575C27.9183 0.913575 27.9136 0.913575 27.9088 0.913575C27.9041 0.913575 27.8993 0.913575 27.8946 0.913575C27.8898 0.913575 27.8851 0.913575 27.8804 0.913575C27.8756 0.913575 27.8709 0.913575 27.8661 0.913575C27.8614 0.913575 27.8567 0.913575 27.852 0.913575C27.8472 0.913575 27.8425 0.913575 27.8378 0.913575C27.8331 0.913575 27.8283 0.913575 27.8236 0.913575C27.8189 0.913575 27.8142 0.913575 27.8095 0.913575C27.8048 0.913575 27.8001 0.913575 27.7953 0.913575C27.7906 0.913575 27.7859 0.913575 27.7812 0.913575C27.7765 0.913575 27.7718 0.913575 27.7671 0.913575C27.7624 0.913575 27.7577 0.913575 27.7531 0.913575C27.7484 0.913575 27.7437 0.913575 27.739 0.913575C27.7343 0.913575 27.7296 0.913575 27.7249 0.913575C27.7203 0.913575 27.7156 0.913575 27.7109 0.913575C27.7062 0.913575 27.7016 0.913575 27.6969 0.913575C27.6922 0.913575 27.6876 0.913575 27.6829 0.913575C27.6783 0.913575 27.6736 0.913575 27.6689 0.913575C27.6643 0.913575 27.6596 0.913575 27.655 0.913575C27.6503 0.913575 27.6457 0.913575 27.641 0.913575C27.6364 0.913575 27.6317 0.913575 27.6271 0.913575C27.6225 0.913575 27.6178 0.913575 27.6132 0.913575C27.6086 0.913575 27.6039 0.913575 27.5993 0.913575C27.5947 0.913575 27.59 0.913575 27.5854 0.913575C27.5808 0.913575 27.5762 0.913575 27.5716 0.913575C27.5669 0.913575 27.5623 0.913575 27.5577 0.913575C27.5531 0.913575 27.5485 0.913575 27.5439 0.913575C27.5393 0.913575 27.5347 0.913575 27.5301 0.913575C27.5255 0.913575 27.5209 0.913575 27.5163 0.913575C27.5117 0.913575 27.5071 0.913575 27.5025 0.913575C27.4979 0.913575 27.4933 0.913575 27.4887 0.913575C27.4842 0.913575 27.4796 0.913575 27.475 0.913575C27.4704 0.913575 27.4658 0.913575 27.4613 0.913575C27.4567 0.913575 27.4521 0.913575 27.4476 0.913575C27.443 0.913575 27.4384 0.913575 27.4339 0.913575C27.4293 0.913575 27.4248 0.913575 27.4202 0.913575C27.4156 0.913575 27.4111 0.913575 27.4065 0.913575C27.402 0.913575 27.3974 0.913575 27.3929 0.913575C27.3884 0.913575 27.3838 0.913575 27.3793 0.913575C27.3747 0.913575 27.3702 0.913575 27.3657 0.913575C27.3611 0.913575 27.3566 0.913575 27.3521 0.913575C27.3476 0.913575 27.343 0.913575 27.3385 0.913575C27.334 0.913575 27.3295 0.913575 27.325 0.913575C27.3205 0.913575 27.3159 0.913575 27.3114 0.913575C27.3069 0.913575 27.3024 0.913575 27.2979 0.913575C27.2934 0.913575 27.2889 0.913575 27.2844 0.913575C27.2799 0.913575 27.2754 0.913575 27.2709 0.913575C27.2664 0.913575 27.262 0.913575 27.2575 0.913575C27.253 0.913575 27.2485 0.913575 27.244 0.913575C27.2395 0.913575 27.2351 0.913575 27.2306 0.913575C27.2261 0.913575 27.2217 0.913575 27.2172 0.913575C27.2127 0.913575 27.2083 0.913575 27.2038 0.913575C27.1993 0.913575 27.1949 0.913575 27.1904 0.913575C27.186 0.913575 27.1815 0.913575 27.1771 0.913575C27.1726 0.913575 27.1682 0.913575 27.1637 0.913575C27.1593 0.913575 27.1548 0.913575 27.1504 0.913575C27.146 0.913575 27.1415 0.913575 27.1371 0.913575C27.1327 0.913575 27.1282 0.913575 27.1238 0.913575C27.1194 0.913575 27.1149 0.913575 27.1105 0.913575C27.1061 0.913575 27.1017 0.913575 27.0973 0.913575C27.0929 0.913575 27.0885 0.913575 27.084 0.913575C27.0796 0.913575 27.0752 0.913575 27.0708 0.913575C27.0664 0.913575 27.062 0.913575 27.0576 0.913575C27.0532 0.913575 27.0488 0.913575 27.0444 0.913575C27.0401 0.913575 27.0357 0.913575 27.0313 0.913575C27.0269 0.913575 27.0225 0.913575 27.0181 0.913575C27.0138 0.913575 27.0094 0.913575 27.005 0.913575C27.0006 0.913575 26.9963 0.913575 26.9919 0.913575C26.9875 0.913575 26.9832 0.913575 26.9788 0.913575C26.9745 0.913575 26.9701 0.913575 26.9658 0.913575C26.9614 0.913575 26.957 0.913575 26.9527 0.913575C26.9484 0.913575 26.944 0.913575 26.9397 0.913575C26.9353 0.913575 26.931 0.913575 26.9266 0.913575C26.9223 0.913575 26.918 0.913575 26.9137 0.913575C26.9093 0.913575 26.905 0.913575 26.9007 0.913575C26.8963 0.913575 26.892 0.913575 26.8877 0.913575C26.8834 0.913575 26.8791 0.913575 26.8748 0.913575C26.8705 0.913575 26.8661 0.913575 26.8618 0.913575C26.8575 0.913575 26.8532 0.913575 26.8489 0.913575C26.8446 0.913575 26.8403 0.913575 26.836 0.913575C26.8318 0.913575 26.8275 0.913575 26.8232 0.913575C26.8189 0.913575 26.8146 0.913575 26.8103 0.913575C26.806 0.913575 26.8018 0.913575 26.7975 0.913575C26.7932 0.913575 26.789 0.913575 26.7847 0.913575C26.7804 0.913575 26.7762 0.913575 26.7719 0.913575C26.7676 0.913575 26.7634 0.913575 26.7591 0.913575C26.7549 0.913575 26.7506 0.913575 26.7464 0.913575C26.7421 0.913575 26.7379 0.913575 26.7336 0.913575C26.7294 0.913575 26.7251 0.913575 26.7209 0.913575C26.7167 0.913575 26.7124 0.913575 26.7082 0.913575C26.704 0.913575 26.6997 0.913575 26.6955 0.913575C26.6913 0.913575 26.6871 0.913575 26.6829 0.913575C26.6786 0.913575 26.6744 0.913575 26.6702 0.913575C26.666 0.913575 26.6618 0.913575 26.6576 0.913575C26.6534 0.913575 26.6492 0.913575 26.645 0.913575C26.6408 0.913575 26.6366 0.913575 26.6324 0.913575C26.6282 0.913575 26.624 0.913575 26.6198 0.913575C26.6156 0.913575 26.6115 0.913575 26.6073 0.913575C26.6031 0.913575 26.5989 0.913575 26.5947 0.913575C26.5906 0.913575 26.5864 0.913575 26.5822 0.913575C26.5781 0.913575 26.5739 0.913575 26.5697 0.913575C26.5656 0.913575 26.5614 0.913575 26.5573 0.913575C26.5531 0.913575 26.549 0.913575 26.5448 0.913575C26.5407 0.913575 26.5365 0.913575 26.5324 0.913575C26.5282 0.913575 26.5241 0.913575 26.52 0.913575C26.5158 0.913575 26.5117 0.913575 26.5076 0.913575C26.5034 0.913575 26.4993 0.913575 26.4952 0.913575C26.4911 0.913575 26.4869 0.913575 26.4828 0.913575C26.4787 0.913575 26.4746 0.913575 26.4705 0.913575C26.4664 0.913575 26.4623 0.913575 26.4582 0.913575C26.4541 0.913575 26.45 0.913575 26.4459 0.913575C26.4418 0.913575 26.4377 0.913575 26.4336 0.913575C26.4295 0.913575 26.4254 0.913575 26.4213 0.913575C26.4172 0.913575 26.4132 0.913575 26.4091 0.913575C26.405 0.913575 26.4009 0.913575 26.3969 0.913575C26.3928 0.913575 26.3887 0.913575 26.3847 0.913575C26.3806 0.913575 26.3765 0.913575 26.3725 0.913575C26.3684 0.913575 26.3644 0.913575 26.3603 0.913575C26.3563 0.913575 26.3522 0.913575 26.3482 0.913575C26.3441 0.913575 26.3401 0.913575 26.336 0.913575C26.332 0.913575 26.328 0.913575 26.3239 0.913575C26.3199 0.913575 26.3159 0.913575 26.3119 0.913575C26.3078 0.913575 26.3038 0.913575 26.2998 0.913575C26.2958 0.913575 26.2918 0.913575 26.2877 0.913575C26.2837 0.913575 26.2797 0.913575 26.2757 0.913575C26.2717 0.913575 26.2677 0.913575 26.2637 0.913575C26.2597 0.913575 26.2557 0.913575 26.2517 0.913575C26.2477 0.913575 26.2437 0.913575 26.2398 0.913575C26.2358 0.913575 26.2318 0.913575 26.2278 0.913575C26.2238 0.913575 26.2199 0.913575 26.2159 0.913575C26.2119 0.913575 26.2079 0.913575 26.204 0.913575C26.2 0.913575 26.196 0.913575 26.1921 0.913575C26.1881 0.913575 26.1842 0.913575 26.1802 0.913575C26.1763 0.913575 26.1723 0.913575 26.1684 0.913575C26.1644 0.913575 26.1605 0.913575 26.1565 0.913575C26.1526 0.913575 26.1487 0.913575 26.1447 0.913575C26.1408 0.913575 26.1369 0.913575 26.133 0.913575C26.129 0.913575 26.1251 0.913575 26.1212 0.913575C26.1173 0.913575 26.1134 0.913575 26.1094 0.913575C26.1055 0.913575 26.1016 0.913575 26.0977 0.913575C26.0938 0.913575 26.0899 0.913575 26.086 0.913575C26.0821 0.913575 26.0782 0.913575 26.0743 0.913575C26.0704 0.913575 26.0665 0.913575 26.0627 0.913575C26.0588 0.913575 26.0549 0.913575 26.051 0.913575C26.0471 0.913575 26.0433 0.913575 26.0394 0.913575C26.0355 0.913575 26.0317 0.913575 26.0278 0.913575C26.0239 0.913575 26.0201 0.913575 26.0162 0.913575C26.0123 0.913575 26.0085 0.913575 26.0046 0.913575C26.0008 0.913575 25.9969 0.913575 25.9931 0.913575C25.9893 0.913575 25.9854 0.913575 25.9816 0.913575C25.9777 0.913575 25.9739 0.913575 25.9701 0.913575C25.9662 0.913575 25.9624 0.913575 25.9586 0.913575C25.9548 0.913575 25.951 0.913575 25.9471 0.913575C25.9433 0.913575 25.9395 0.913575 25.9357 0.913575C25.9319 0.913575 25.9281 0.913575 25.9243 0.913575C25.9205 0.913575 25.9167 0.913575 25.9129 0.913575C25.9091 0.913575 25.9053 0.913575 25.9015 0.913575C25.8977 0.913575 25.8939 0.913575 25.8901 0.913575C25.8864 0.913575 25.8826 0.913575 25.8788 0.913575C25.875 0.913575 25.8713 0.913575 25.8675 0.913575C25.8637 0.913575 25.86 0.913575 25.8562 0.913575C25.8524 0.913575 25.8487 0.913575 25.8449 0.913575C25.8412 0.913575 25.8374 0.913575 25.8337 0.913575C25.8299 0.913575 25.8262 0.913575 25.8224 0.913575C25.8187 0.913575 25.815 0.913575 25.8112 0.913575C25.8075 0.913575 25.8038 0.913575 25.8 0.913575C25.7963 0.913575 25.7926 0.913575 25.7889 0.913575C25.7851 0.913575 25.7814 0.913575 25.7777 0.913575C25.774 0.913575 25.7703 0.913575 25.7666 0.913575C25.7629 0.913575 25.7592 0.913575 25.7555 0.913575C25.7518 0.913575 25.7481 0.913575 25.7444 0.913575C25.7407 0.913575 25.737 0.913575 25.7333 0.913575C25.7297 0.913575 25.726 0.913575 25.7223 0.913575C25.7186 0.913575 25.7149 0.913575 25.7113 0.913575C25.7076 0.913575 25.7039 0.913575 25.7003 0.913575C25.6966 0.913575 25.6929 0.913575 25.6893 0.913575C25.6856 0.913575 25.682 0.913575 25.6783 0.913575C25.6747 0.913575 25.671 0.913575 25.6674 0.913575C25.6638 0.913575 25.6601 0.913575 25.6565 0.913575C25.6528 0.913575 25.6492 0.913575 25.6456 0.913575C25.642 0.913575 25.6383 0.913575 25.6347 0.913575C25.6311 0.913575 25.6275 0.913575 25.6239 0.913575C25.6203 0.913575 25.6166 0.913575 25.613 0.913575C25.6094 0.913575 25.6058 0.913575 25.6022 0.913575C25.5986 0.913575 25.595 0.913575 25.5914 0.913575C25.5879 0.913575 25.5843 0.913575 25.5807 0.913575C25.5771 0.913575 25.5735 0.913575 25.5699 0.913575C25.5664 0.913575 25.5628 0.913575 25.5592 0.913575C25.5556 0.913575 25.5521 0.913575 25.5485 0.913575C25.5449 0.913575 25.5414 0.913575 25.5378 0.913575C25.5343 0.913575 25.5307 0.913575 25.5272 0.913575C25.5236 0.913575 25.5201 0.913575 25.5165 0.913575C25.513 0.913575 25.5095 0.913575 25.5059 0.913575C25.5024 0.913575 25.4989 0.913575 25.4953 0.913575C25.4918 0.913575 25.4883 0.913575 25.4848 0.913575C25.4812 0.913575 25.4777 0.913575 25.4742 0.913575C25.4707 0.913575 25.4672 0.913575 25.4637 0.913575C25.4602 0.913575 25.4567 0.913575 25.4532 0.913575C25.4497 0.913575 25.4462 0.913575 25.4427 0.913575C25.4392 0.913575 25.4357 0.913575 25.4322 0.913575C25.4288 0.913575 25.4253 0.913575 25.4218 0.913575C25.4183 0.913575 25.4149 0.913575 25.4114 0.913575C25.4079 0.913575 25.4045 0.913575 25.401 0.913575C25.3975 0.913575 25.3941 0.913575 25.3906 0.913575C25.3872 0.913575 25.3837 0.913575 25.3803 0.913575C25.3768 0.913575 25.3734 0.913575 25.3699 0.913575C25.3665 0.913575 25.3631 0.913575 25.3596 0.913575C25.3562 0.913575 25.3528 0.913575 25.3494 0.913575C25.3459 0.913575 25.3425 0.913575 25.3391 0.913575C25.3357 0.913575 25.3323 0.913575 25.3288 0.913575C25.3254 0.913575 25.322 0.913575 25.3186 0.913575C25.3152 0.913575 25.3118 0.913575 25.3084 0.913575C25.305 0.913575 25.3017 0.913575 25.2983 0.913575C25.2949 0.913575 25.2915 0.913575 25.2881 0.913575C25.2847 0.913575 25.2814 0.913575 25.278 0.913575C25.2746 0.913575 25.2712 0.913575 25.2679 0.913575C25.2645 0.913575 25.2612 0.913575 25.2578 0.913575C25.2544 0.913575 25.2511 0.913575 25.2477 0.913575C25.2444 0.913575 25.241 0.913575 25.2377 0.913575C25.2344 0.913575 25.231 0.913575 25.2277 0.913575C25.2243 0.913575 25.221 0.913575 25.2177 0.913575C25.2144 0.913575 25.211 0.913575 25.2077 0.913575C25.2044 0.913575 25.2011 0.913575 25.1978 0.913575C25.1945 0.913575 25.1911 0.913575 25.1878 0.913575C25.1845 0.913575 25.1812 0.913575 25.1779 0.913575C25.1746 0.913575 25.1713 0.913575 25.1681 0.913575C25.1648 0.913575 25.1615 0.913575 25.1582 0.913575C25.1549 0.913575 25.1516 0.913575 25.1484 0.913575C25.1451 0.913575 25.1418 0.913575 25.1386 0.913575C25.1353 0.913575 25.132 0.913575 25.1288 0.913575C25.1255 0.913575 25.1223 0.913575 25.119 0.913575C25.1157 0.913575 25.1125 0.913575 25.1093 0.913575C25.106 0.913575 25.1028 0.913575 25.0995 0.913575C25.0963 0.913575 25.0931 0.913575 25.0898 0.913575C25.0866 0.913575 25.0834 0.913575 25.0802 0.913575C25.0769 0.913575 25.0737 0.913575 25.0705 0.913575C25.0673 0.913575 25.0641 0.913575 25.0609 0.913575C25.0577 0.913575 25.0545 0.913575 25.0513 0.913575C25.0481 0.913575 25.0449 0.913575 25.0417 0.913575C25.0385 0.913575 25.0353 0.913575 25.0321 0.913575C25.029 0.913575 25.0258 0.913575 25.0226 0.913575C25.0194 0.913575 25.0163 0.913575 25.0131 0.913575C25.0099 0.913575 25.0068 0.913575 25.0036 0.913575C25.0004 0.913575 24.9973 0.913575 24.9941 0.913575C24.991 0.913575 24.9878 0.913575 24.9847 0.913575C24.9815 0.913575 24.9784 0.913575 24.9753 0.913575C24.9721 0.913575 24.969 0.913575 24.9659 0.913575C24.9627 0.913575 24.9596 0.913575 24.9565 0.913575C24.9534 0.913575 24.9503 0.913575 24.9471 0.913575C24.944 0.913575 24.9409 0.913575 24.9378 0.913575C24.9347 0.913575 24.9316 0.913575 24.9285 0.913575C24.9254 0.913575 24.9223 0.913575 24.9192 0.913575C24.9161 0.913575 24.9131 0.913575 24.91 0.913575C24.9069 0.913575 24.9038 0.913575 24.9007 0.913575C24.8977 0.913575 24.8946 0.913575 24.8915 0.913575C24.8885 0.913575 24.8854 0.913575 24.8823 0.913575C24.8793 0.913575 24.8762 0.913575 24.8732 0.913575C24.8701 0.913575 24.8671 0.913575 24.864 0.913575C24.861 0.913575 24.858 0.913575 24.8549 0.913575C24.8519 0.913575 24.8489 0.913575 24.8458 0.913575C24.8428 0.913575 24.8398 0.913575 24.8368 0.913575C24.8337 0.913575 24.8307 0.913575 24.8277 0.913575C24.8247 0.913575 24.8217 0.913575 24.8187 0.913575C24.8157 0.913575 24.8127 0.913575 24.8097 0.913575C24.8067 0.913575 24.8037 0.913575 24.8007 0.913575C24.7977 0.913575 24.7948 0.913575 24.7918 0.913575C24.7888 0.913575 24.7858 0.913575 24.7829 0.913575C24.7799 0.913575 24.7769 0.913575 24.774 0.913575C24.771 0.913575 24.768 0.913575 24.7651 0.913575C24.7621 0.913575 24.7592 0.913575 24.7562 0.913575C24.7533 0.913575 24.7503 0.913575 24.7474 0.913575C24.7444 0.913575 24.7415 0.913575 24.7386 0.913575C24.7357 0.913575 24.7327 0.913575 24.7298 0.913575C24.7269 0.913575 24.724 0.913575 24.721 0.913575C24.7181 0.913575 24.7152 0.913575 24.7123 0.913575C24.7094 0.913575 24.7065 0.913575 24.7036 0.913575C24.7007 0.913575 24.6978 0.913575 24.6949 0.913575C24.692 0.913575 24.6891 0.913575 24.6863 0.913575C24.6834 0.913575 24.6805 0.913575 24.6776 0.913575C24.6747 0.913575 24.6719 0.913575 24.669 0.913575C24.6661 0.913575 24.6633 0.913575 24.6604 0.913575C24.6576 0.913575 24.6547 0.913575 24.6519 0.913575C24.649 0.913575 24.6462 0.913575 24.6433 0.913575C24.6405 0.913575 24.6376 0.913575 24.6348 0.913575C24.632 0.913575 24.6291 0.913575 24.6263 0.913575C24.6235 0.913575 24.6207 0.913575 24.6178 0.913575C24.615 0.913575 24.6122 0.913575 24.6094 0.913575C24.6066 0.913575 24.6038 0.913575 24.601 0.913575C24.5982 0.913575 24.5954 0.913575 24.5926 0.913575C24.5898 0.913575 24.587 0.913575 24.5842 0.913575C24.5814 0.913575 24.5786 0.913575 24.5759 0.913575C24.5731 0.913575 24.5703 0.913575 24.5676 0.913575C24.5648 0.913575 24.562 0.913575 24.5593 0.913575C24.5565 0.913575 24.5537 0.913575 24.551 0.913575C24.5482 0.913575 24.5455 0.913575 24.5427 0.913575C24.54 0.913575 24.5373 0.913575 24.5345 0.913575C24.5318 0.913575 24.529 0.913575 24.5263 0.913575C24.5236 0.913575 24.5209 0.913575 24.5181 0.913575C24.5154 0.913575 24.5127 0.913575 24.51 0.913575C24.5073 0.913575 24.5046 0.913575 24.5019 0.913575C24.4992 0.913575 24.4965 0.913575 24.4938 0.913575C24.4911 0.913575 24.4884 0.913575 24.4857 0.913575C24.483 0.913575 24.4803 0.913575 24.4777 0.913575C24.475 0.913575 24.4723 0.913575 24.4696 0.913575C24.467 0.913575 24.4643 0.913575 24.4616 0.913575C24.459 0.913575 24.4563 0.913575 24.4537 0.913575C24.451 0.913575 24.4484 0.913575 24.4457 0.913575C24.4431 0.913575 24.4404 0.913575 24.4378 0.913575C24.4352 0.913575 24.4325 0.913575 24.4299 0.913575C24.4273 0.913575 24.4246 0.913575 24.422 0.913575C24.4194 0.913575 24.4168 0.913575 24.4142 0.913575C24.4116 0.913575 24.409 0.913575 24.4064 0.913575C24.4038 0.913575 24.4012 0.913575 24.3986 0.913575C24.396 0.913575 24.3934 0.913575 24.3908 0.913575C24.3882 0.913575 24.3856 0.913575 24.383 0.913575C24.3805 0.913575 24.3779 0.913575 24.3753 0.913575C24.3728 0.913575 24.3702 0.913575 24.3676 0.913575C24.3651 0.913575 24.3625 0.913575 24.36 0.913575C24.3574 0.913575 24.3549 0.913575 24.3523 0.913575C24.3498 0.913575 24.3472 0.913575 24.3447 0.913575C24.3422 0.913575 24.3396 0.913575 24.3371 0.913575C24.3346 0.913575 24.332 0.913575 24.3295 0.913575C24.327 0.913575 24.3245 0.913575 24.322 0.913575C24.3195 0.913575 24.317 0.913575 24.3145 0.913575C24.312 0.913575 24.3095 0.913575 24.307 0.913575C24.3045 0.913575 24.302 0.913575 24.2995 0.913575C24.297 0.913575 24.2945 0.913575 24.2921 0.913575C24.2896 0.913575 24.2871 0.913575 24.2847 0.913575C24.2822 0.913575 24.2797 0.913575 24.2773 0.913575C24.2748 0.913575 24.2723 0.913575 24.2699 0.913575C24.2674 0.913575 24.265 0.913575 24.2626 0.913575C24.2601 0.913575 24.2577 0.913575 24.2552 0.913575C24.2528 0.913575 24.2504 0.913575 24.248 0.913575C24.2455 0.913575 24.2431 0.913575 24.2407 0.913575C24.2383 0.913575 24.2359 0.913575 24.2335 0.913575C24.2311 0.913575 24.2286 0.913575 24.2262 0.913575C24.2239 0.913575 24.2215 0.913575 24.2191 0.913575C24.2167 0.913575 24.2143 0.913575 24.2119 0.913575C24.2095 0.913575 24.2071 0.913575 24.2048 0.913575C24.2024 0.913575 24.2 0.913575 24.1977 0.913575C24.1953 0.913575 24.1929 0.913575 24.1906 0.913575C24.1882 0.913575 24.1859 0.913575 24.1835 0.913575C24.1812 0.913575 24.1788 0.913575 24.1765 0.913575C24.1742 0.913575 24.1718 0.913575 24.1695 0.913575C24.1672 0.913575 24.1648 0.913575 24.1625 0.913575C24.1602 0.913575 24.1579 0.913575 24.1556 0.913575C24.1533 0.913575 24.151 0.913575 24.1487 0.913575C24.1464 0.913575 24.1441 0.913575 24.1418 0.913575C24.1395 0.913575 24.1372 0.913575 24.1349 0.913575C24.1326 0.913575 24.1303 0.913575 24.128 0.913575C24.1258 0.913575 24.1235 0.913575 24.1212 0.913575C24.119 0.913575 24.1167 0.913575 24.1144 0.913575C24.1122 0.913575 24.1099 0.913575 24.1077 0.913575C24.1054 0.913575 24.1032 0.913575 24.1009 0.913575C24.0987 0.913575 24.0964 0.913575 24.0942 0.913575C24.092 0.913575 24.0897 0.913575 24.0875 0.913575C24.0853 0.913575 24.0831 0.913575 24.0809 0.913575C24.0786 0.913575 24.0764 0.913575 24.0742 0.913575C24.072 0.913575 24.0698 0.913575 24.0676 0.913575C24.0654 0.913575 24.0632 0.913575 24.061 0.913575C24.0589 0.913575 24.0567 0.913575 24.0545 0.913575C24.0523 0.913575 24.0501 0.913575 24.048 0.913575C24.0458 0.913575 24.0436 0.913575 24.0415 0.913575C24.0393 0.913575 24.0371 0.913575 24.035 0.913575C24.0328 0.913575 24.0307 0.913575 24.0285 0.913575C24.0264 0.913575 24.0242 0.913575 24.0221 0.913575C24.02 0.913575 24.0178 0.913575 24.0157 0.913575C24.0136 0.913575 24.0115 0.913575 24.0094 0.913575C24.0072 0.913575 24.0051 0.913575 24.003 0.913575C24.0009 0.913575 23.9988 0.913575 23.9967 0.913575C23.9946 0.913575 23.9925 0.913575 23.9904 0.913575C23.9883 0.913575 23.9862 0.913575 23.9841 0.913575C23.9821 0.913575 23.98 0.913575 23.9779 0.913575C23.9758 0.913575 23.9738 0.913575 23.9717 0.913575C23.9696 0.913575 23.9676 0.913575 23.9655 0.913575C23.9635 0.913575 23.9614 0.913575 23.9594 0.913575C23.9573 0.913575 23.9553 0.913575 23.9532 0.913575C23.9512 0.913575 23.9492 0.913575 23.9472 0.913575C23.9451 0.913575 23.9431 0.913575 23.9411 0.913575C23.9391 0.913575 23.937 0.913575 23.935 0.913575C23.933 0.913575 23.931 0.913575 23.929 0.913575C23.927 0.913575 23.925 0.913575 23.923 0.913575C23.921 0.913575 23.919 0.913575 23.9171 0.913575C23.9151 0.913575 23.9131 0.913575 23.9111 0.913575C23.9092 0.913575 23.9072 0.913575 23.9052 0.913575C23.9033 0.913575 23.9013 0.913575 23.8993 0.913575C23.8974 0.913575 23.8954 0.913575 23.8935 0.913575C23.8915 0.913575 23.8896 0.913575 23.8877 0.913575C23.8857 0.913575 23.8838 0.913575 23.8819 0.913575C23.8799 0.913575 23.878 0.913575 23.8761 0.913575C23.8742 0.913575 23.8723 0.913575 23.8703 0.913575C23.8684 0.913575 23.8665 0.913575 23.8646 0.913575C23.8627 0.913575 23.8608 0.913575 23.8589 0.913575C23.857 0.913575 23.8552 0.913575 23.8533 0.913575C23.8514 0.913575 23.8495 0.913575 23.8476 0.913575C23.8458 0.913575 23.8439 0.913575 23.842 0.913575C23.8402 0.913575 23.8383 0.913575 23.8365 0.913575C23.8346 0.913575 23.8328 0.913575 23.8309 0.913575C23.8291 0.913575 23.8272 0.913575 23.8254 0.913575C23.8235 0.913575 23.8217 0.913575 23.8199 0.913575C23.8181 0.913575 23.8162 0.913575 23.8144 0.913575C23.8126 0.913575 23.8108 0.913575 23.809 0.913575C23.8072 0.913575 23.8054 0.913575 23.8036 0.913575C23.8018 0.913575 23.8 0.913575 23.7982 0.913575C23.7964 0.913575 23.7946 0.913575 23.7928 0.913575C23.791 0.913575 23.7893 0.913575 23.7875 0.913575C23.7857 0.913575 23.784 0.913575 23.7822 0.913575C23.7804 0.913575 23.7787 0.913575 23.7769 0.913575C23.7752 0.913575 23.7734 0.913575 23.7717 0.913575C23.7699 0.913575 23.7682 0.913575 23.7665 0.913575C23.7647 0.913575 23.763 0.913575 23.7613 0.913575C23.7595 0.913575 23.7578 0.913575 23.7561 0.913575C23.7544 0.913575 23.7527 0.913575 23.751 0.913575C23.7493 0.913575 23.7476 0.913575 23.7459 0.913575C23.7442 0.913575 23.7425 0.913575 23.7408 0.913575C23.7391 0.913575 23.7374 0.913575 23.7357 0.913575C23.7341 0.913575 23.7324 0.913575 23.7307 0.913575C23.729 0.913575 23.7274 0.913575 23.7257 0.913575C23.7241 0.913575 23.7224 0.913575 23.7208 0.913575C23.7191 0.913575 23.7175 0.913575 23.7158 0.913575C23.7142 0.913575 23.7125 0.913575 23.7109 0.913575C23.7093 0.913575 23.7077 0.913575 23.706 0.913575C23.7044 0.913575 23.7028 0.913575 23.7012 0.913575C23.6996 0.913575 23.698 0.913575 23.6964 0.913575C23.6948 0.913575 23.6932 0.913575 23.6916 0.913575C23.69 0.913575 23.6884 0.913575 23.6868 0.913575C23.6852 0.913575 23.6836 0.913575 23.6821 0.913575C23.6805 0.913575 23.6789 0.913575 23.6774 0.913575C23.6758 0.913575 23.6742 0.913575 23.6727 0.913575C23.6711 0.913575 23.6696 0.913575 23.668 0.913575C23.6665 0.913575 23.6649 0.913575 23.6634 0.913575C23.6619 0.913575 23.6603 0.913575 23.6588 0.913575C23.6573 0.913575 23.6557 0.913575 23.6542 0.913575C23.6527 0.913575 23.6512 0.913575 23.6497 0.913575C23.6482 0.913575 23.6467 0.913575 23.6452 0.913575C23.6437 0.913575 23.6422 0.913575 23.6407 0.913575C23.6392 0.913575 23.6377 0.913575 23.6363 0.913575C23.6348 0.913575 23.6333 0.913575 23.6318 0.913575C23.6304 0.913575 23.6289 0.913575 23.6274 0.913575C23.626 0.913575 23.6245 0.913575 23.6231 0.913575C23.6216 0.913575 23.6202 0.913575 23.6187 0.913575C23.6173 0.913575 23.6159 0.913575 23.6144 0.913575C23.613 0.913575 23.6116 0.913575 23.6101 0.913575C23.6087 0.913575 23.6073 0.913575 23.6059 0.913575C23.6045 0.913575 23.6031 0.913575 23.6017 0.913575C23.6003 0.913575 23.5989 0.913575 23.5975 0.913575C23.5961 0.913575 23.5947 0.913575 23.5933 0.913575C23.5919 0.913575 23.5906 0.913575 23.5892 0.913575C23.5878 0.913575 23.5864 0.913575 23.5851 0.913575C23.5837 0.913575 23.5824 0.913575 23.581 0.913575C23.5797 0.913575 23.5783 0.913575 23.577 0.913575C23.5756 0.913575 23.5743 0.913575 23.5729 0.913575C23.5716 0.913575 23.5703 0.913575 23.569 0.913575C23.5676 0.913575 23.5663 0.913575 23.565 0.913575C23.5637 0.913575 23.5624 0.913575 23.5611 0.913575C23.5598 0.913575 23.5585 0.913575 23.5572 0.913575C23.5559 0.913575 23.5546 0.913575 23.5533 0.913575C23.552 0.913575 23.5507 0.913575 23.5495 0.913575C23.5482 0.913575 23.5469 0.913575 23.5456 0.913575C23.5444 0.913575 23.5431 0.913575 23.5419 0.913575V3.08642C23.5431 3.08642 23.5444 3.08642 23.5456 3.08642C23.5469 3.08642 23.5482 3.08642 23.5495 3.08642C23.5507 3.08642 23.552 3.08642 23.5533 3.08642C23.5546 3.08642 23.5559 3.08642 23.5572 3.08642C23.5585 3.08642 23.5598 3.08642 23.5611 3.08642C23.5624 3.08642 23.5637 3.08642 23.565 3.08642C23.5663 3.08642 23.5676 3.08642 23.569 3.08642C23.5703 3.08642 23.5716 3.08642 23.5729 3.08642C23.5743 3.08642 23.5756 3.08642 23.577 3.08642C23.5783 3.08642 23.5797 3.08642 23.581 3.08642C23.5824 3.08642 23.5837 3.08642 23.5851 3.08642C23.5864 3.08642 23.5878 3.08642 23.5892 3.08642C23.5906 3.08642 23.5919 3.08642 23.5933 3.08642C23.5947 3.08642 23.5961 3.08642 23.5975 3.08642C23.5989 3.08642 23.6003 3.08642 23.6017 3.08642C23.6031 3.08642 23.6045 3.08642 23.6059 3.08642C23.6073 3.08642 23.6087 3.08642 23.6101 3.08642C23.6116 3.08642 23.613 3.08642 23.6144 3.08642C23.6159 3.08642 23.6173 3.08642 23.6187 3.08642C23.6202 3.08642 23.6216 3.08642 23.6231 3.08642C23.6245 3.08642 23.626 3.08642 23.6274 3.08642C23.6289 3.08642 23.6304 3.08642 23.6318 3.08642C23.6333 3.08642 23.6348 3.08642 23.6363 3.08642C23.6377 3.08642 23.6392 3.08642 23.6407 3.08642C23.6422 3.08642 23.6437 3.08642 23.6452 3.08642C23.6467 3.08642 23.6482 3.08642 23.6497 3.08642C23.6512 3.08642 23.6527 3.08642 23.6542 3.08642C23.6557 3.08642 23.6573 3.08642 23.6588 3.08642C23.6603 3.08642 23.6619 3.08642 23.6634 3.08642C23.6649 3.08642 23.6665 3.08642 23.668 3.08642C23.6696 3.08642 23.6711 3.08642 23.6727 3.08642C23.6742 3.08642 23.6758 3.08642 23.6774 3.08642C23.6789 3.08642 23.6805 3.08642 23.6821 3.08642C23.6836 3.08642 23.6852 3.08642 23.6868 3.08642C23.6884 3.08642 23.69 3.08642 23.6916 3.08642C23.6932 3.08642 23.6948 3.08642 23.6964 3.08642C23.698 3.08642 23.6996 3.08642 23.7012 3.08642C23.7028 3.08642 23.7044 3.08642 23.706 3.08642C23.7077 3.08642 23.7093 3.08642 23.7109 3.08642C23.7125 3.08642 23.7142 3.08642 23.7158 3.08642C23.7175 3.08642 23.7191 3.08642 23.7208 3.08642C23.7224 3.08642 23.7241 3.08642 23.7257 3.08642C23.7274 3.08642 23.729 3.08642 23.7307 3.08642C23.7324 3.08642 23.7341 3.08642 23.7357 3.08642C23.7374 3.08642 23.7391 3.08642 23.7408 3.08642C23.7425 3.08642 23.7442 3.08642 23.7459 3.08642C23.7476 3.08642 23.7493 3.08642 23.751 3.08642C23.7527 3.08642 23.7544 3.08642 23.7561 3.08642C23.7578 3.08642 23.7595 3.08642 23.7613 3.08642C23.763 3.08642 23.7647 3.08642 23.7665 3.08642C23.7682 3.08642 23.7699 3.08642 23.7717 3.08642C23.7734 3.08642 23.7752 3.08642 23.7769 3.08642C23.7787 3.08642 23.7804 3.08642 23.7822 3.08642C23.784 3.08642 23.7857 3.08642 23.7875 3.08642C23.7893 3.08642 23.791 3.08642 23.7928 3.08642C23.7946 3.08642 23.7964 3.08642 23.7982 3.08642C23.8 3.08642 23.8018 3.08642 23.8036 3.08642C23.8054 3.08642 23.8072 3.08642 23.809 3.08642C23.8108 3.08642 23.8126 3.08642 23.8144 3.08642C23.8162 3.08642 23.8181 3.08642 23.8199 3.08642C23.8217 3.08642 23.8235 3.08642 23.8254 3.08642C23.8272 3.08642 23.8291 3.08642 23.8309 3.08642C23.8328 3.08642 23.8346 3.08642 23.8365 3.08642C23.8383 3.08642 23.8402 3.08642 23.842 3.08642C23.8439 3.08642 23.8458 3.08642 23.8476 3.08642C23.8495 3.08642 23.8514 3.08642 23.8533 3.08642C23.8552 3.08642 23.857 3.08642 23.8589 3.08642C23.8608 3.08642 23.8627 3.08642 23.8646 3.08642C23.8665 3.08642 23.8684 3.08642 23.8703 3.08642C23.8723 3.08642 23.8742 3.08642 23.8761 3.08642C23.878 3.08642 23.8799 3.08642 23.8819 3.08642C23.8838 3.08642 23.8857 3.08642 23.8877 3.08642C23.8896 3.08642 23.8915 3.08642 23.8935 3.08642C23.8954 3.08642 23.8974 3.08642 23.8993 3.08642C23.9013 3.08642 23.9033 3.08642 23.9052 3.08642C23.9072 3.08642 23.9092 3.08642 23.9111 3.08642C23.9131 3.08642 23.9151 3.08642 23.9171 3.08642C23.919 3.08642 23.921 3.08642 23.923 3.08642C23.925 3.08642 23.927 3.08642 23.929 3.08642C23.931 3.08642 23.933 3.08642 23.935 3.08642C23.937 3.08642 23.9391 3.08642 23.9411 3.08642C23.9431 3.08642 23.9451 3.08642 23.9472 3.08642C23.9492 3.08642 23.9512 3.08642 23.9532 3.08642C23.9553 3.08642 23.9573 3.08642 23.9594 3.08642C23.9614 3.08642 23.9635 3.08642 23.9655 3.08642C23.9676 3.08642 23.9696 3.08642 23.9717 3.08642C23.9738 3.08642 23.9758 3.08642 23.9779 3.08642C23.98 3.08642 23.9821 3.08642 23.9841 3.08642C23.9862 3.08642 23.9883 3.08642 23.9904 3.08642C23.9925 3.08642 23.9946 3.08642 23.9967 3.08642C23.9988 3.08642 24.0009 3.08642 24.003 3.08642C24.0051 3.08642 24.0072 3.08642 24.0094 3.08642C24.0115 3.08642 24.0136 3.08642 24.0157 3.08642C24.0178 3.08642 24.02 3.08642 24.0221 3.08642C24.0242 3.08642 24.0264 3.08642 24.0285 3.08642C24.0307 3.08642 24.0328 3.08642 24.035 3.08642C24.0371 3.08642 24.0393 3.08642 24.0415 3.08642C24.0436 3.08642 24.0458 3.08642 24.048 3.08642C24.0501 3.08642 24.0523 3.08642 24.0545 3.08642C24.0567 3.08642 24.0589 3.08642 24.061 3.08642C24.0632 3.08642 24.0654 3.08642 24.0676 3.08642C24.0698 3.08642 24.072 3.08642 24.0742 3.08642C24.0764 3.08642 24.0786 3.08642 24.0809 3.08642C24.0831 3.08642 24.0853 3.08642 24.0875 3.08642C24.0897 3.08642 24.092 3.08642 24.0942 3.08642C24.0964 3.08642 24.0987 3.08642 24.1009 3.08642C24.1032 3.08642 24.1054 3.08642 24.1077 3.08642C24.1099 3.08642 24.1122 3.08642 24.1144 3.08642C24.1167 3.08642 24.119 3.08642 24.1212 3.08642C24.1235 3.08642 24.1258 3.08642 24.128 3.08642C24.1303 3.08642 24.1326 3.08642 24.1349 3.08642C24.1372 3.08642 24.1395 3.08642 24.1418 3.08642C24.1441 3.08642 24.1464 3.08642 24.1487 3.08642C24.151 3.08642 24.1533 3.08642 24.1556 3.08642C24.1579 3.08642 24.1602 3.08642 24.1625 3.08642C24.1648 3.08642 24.1672 3.08642 24.1695 3.08642C24.1718 3.08642 24.1742 3.08642 24.1765 3.08642C24.1788 3.08642 24.1812 3.08642 24.1835 3.08642C24.1859 3.08642 24.1882 3.08642 24.1906 3.08642C24.1929 3.08642 24.1953 3.08642 24.1977 3.08642C24.2 3.08642 24.2024 3.08642 24.2048 3.08642C24.2071 3.08642 24.2095 3.08642 24.2119 3.08642C24.2143 3.08642 24.2167 3.08642 24.2191 3.08642C24.2215 3.08642 24.2239 3.08642 24.2262 3.08642C24.2286 3.08642 24.2311 3.08642 24.2335 3.08642C24.2359 3.08642 24.2383 3.08642 24.2407 3.08642C24.2431 3.08642 24.2455 3.08642 24.248 3.08642C24.2504 3.08642 24.2528 3.08642 24.2552 3.08642C24.2577 3.08642 24.2601 3.08642 24.2626 3.08642C24.265 3.08642 24.2674 3.08642 24.2699 3.08642C24.2723 3.08642 24.2748 3.08642 24.2773 3.08642C24.2797 3.08642 24.2822 3.08642 24.2847 3.08642C24.2871 3.08642 24.2896 3.08642 24.2921 3.08642C24.2945 3.08642 24.297 3.08642 24.2995 3.08642C24.302 3.08642 24.3045 3.08642 24.307 3.08642C24.3095 3.08642 24.312 3.08642 24.3145 3.08642C24.317 3.08642 24.3195 3.08642 24.322 3.08642C24.3245 3.08642 24.327 3.08642 24.3295 3.08642C24.332 3.08642 24.3346 3.08642 24.3371 3.08642C24.3396 3.08642 24.3422 3.08642 24.3447 3.08642C24.3472 3.08642 24.3498 3.08642 24.3523 3.08642C24.3549 3.08642 24.3574 3.08642 24.36 3.08642C24.3625 3.08642 24.3651 3.08642 24.3676 3.08642C24.3702 3.08642 24.3728 3.08642 24.3753 3.08642C24.3779 3.08642 24.3805 3.08642 24.383 3.08642C24.3856 3.08642 24.3882 3.08642 24.3908 3.08642C24.3934 3.08642 24.396 3.08642 24.3986 3.08642C24.4012 3.08642 24.4038 3.08642 24.4064 3.08642C24.409 3.08642 24.4116 3.08642 24.4142 3.08642C24.4168 3.08642 24.4194 3.08642 24.422 3.08642C24.4246 3.08642 24.4273 3.08642 24.4299 3.08642C24.4325 3.08642 24.4352 3.08642 24.4378 3.08642C24.4404 3.08642 24.4431 3.08642 24.4457 3.08642C24.4484 3.08642 24.451 3.08642 24.4537 3.08642C24.4563 3.08642 24.459 3.08642 24.4616 3.08642C24.4643 3.08642 24.467 3.08642 24.4696 3.08642C24.4723 3.08642 24.475 3.08642 24.4777 3.08642C24.4803 3.08642 24.483 3.08642 24.4857 3.08642C24.4884 3.08642 24.4911 3.08642 24.4938 3.08642C24.4965 3.08642 24.4992 3.08642 24.5019 3.08642C24.5046 3.08642 24.5073 3.08642 24.51 3.08642C24.5127 3.08642 24.5154 3.08642 24.5181 3.08642C24.5209 3.08642 24.5236 3.08642 24.5263 3.08642C24.529 3.08642 24.5318 3.08642 24.5345 3.08642C24.5373 3.08642 24.54 3.08642 24.5427 3.08642C24.5455 3.08642 24.5482 3.08642 24.551 3.08642C24.5537 3.08642 24.5565 3.08642 24.5593 3.08642C24.562 3.08642 24.5648 3.08642 24.5676 3.08642C24.5703 3.08642 24.5731 3.08642 24.5759 3.08642C24.5786 3.08642 24.5814 3.08642 24.5842 3.08642C24.587 3.08642 24.5898 3.08642 24.5926 3.08642C24.5954 3.08642 24.5982 3.08642 24.601 3.08642C24.6038 3.08642 24.6066 3.08642 24.6094 3.08642C24.6122 3.08642 24.615 3.08642 24.6178 3.08642C24.6207 3.08642 24.6235 3.08642 24.6263 3.08642C24.6291 3.08642 24.632 3.08642 24.6348 3.08642C24.6376 3.08642 24.6405 3.08642 24.6433 3.08642C24.6462 3.08642 24.649 3.08642 24.6519 3.08642C24.6547 3.08642 24.6576 3.08642 24.6604 3.08642C24.6633 3.08642 24.6661 3.08642 24.669 3.08642C24.6719 3.08642 24.6747 3.08642 24.6776 3.08642C24.6805 3.08642 24.6834 3.08642 24.6863 3.08642C24.6891 3.08642 24.692 3.08642 24.6949 3.08642C24.6978 3.08642 24.7007 3.08642 24.7036 3.08642C24.7065 3.08642 24.7094 3.08642 24.7123 3.08642C24.7152 3.08642 24.7181 3.08642 24.721 3.08642C24.724 3.08642 24.7269 3.08642 24.7298 3.08642C24.7327 3.08642 24.7357 3.08642 24.7386 3.08642C24.7415 3.08642 24.7444 3.08642 24.7474 3.08642C24.7503 3.08642 24.7533 3.08642 24.7562 3.08642C24.7592 3.08642 24.7621 3.08642 24.7651 3.08642C24.768 3.08642 24.771 3.08642 24.774 3.08642C24.7769 3.08642 24.7799 3.08642 24.7829 3.08642C24.7858 3.08642 24.7888 3.08642 24.7918 3.08642C24.7948 3.08642 24.7977 3.08642 24.8007 3.08642C24.8037 3.08642 24.8067 3.08642 24.8097 3.08642C24.8127 3.08642 24.8157 3.08642 24.8187 3.08642C24.8217 3.08642 24.8247 3.08642 24.8277 3.08642C24.8307 3.08642 24.8337 3.08642 24.8368 3.08642C24.8398 3.08642 24.8428 3.08642 24.8458 3.08642C24.8489 3.08642 24.8519 3.08642 24.8549 3.08642C24.858 3.08642 24.861 3.08642 24.864 3.08642C24.8671 3.08642 24.8701 3.08642 24.8732 3.08642C24.8762 3.08642 24.8793 3.08642 24.8823 3.08642C24.8854 3.08642 24.8885 3.08642 24.8915 3.08642C24.8946 3.08642 24.8977 3.08642 24.9007 3.08642C24.9038 3.08642 24.9069 3.08642 24.91 3.08642C24.9131 3.08642 24.9161 3.08642 24.9192 3.08642C24.9223 3.08642 24.9254 3.08642 24.9285 3.08642C24.9316 3.08642 24.9347 3.08642 24.9378 3.08642C24.9409 3.08642 24.944 3.08642 24.9471 3.08642C24.9503 3.08642 24.9534 3.08642 24.9565 3.08642C24.9596 3.08642 24.9627 3.08642 24.9659 3.08642C24.969 3.08642 24.9721 3.08642 24.9753 3.08642C24.9784 3.08642 24.9815 3.08642 24.9847 3.08642C24.9878 3.08642 24.991 3.08642 24.9941 3.08642C24.9973 3.08642 25.0004 3.08642 25.0036 3.08642C25.0068 3.08642 25.0099 3.08642 25.0131 3.08642C25.0163 3.08642 25.0194 3.08642 25.0226 3.08642C25.0258 3.08642 25.029 3.08642 25.0321 3.08642C25.0353 3.08642 25.0385 3.08642 25.0417 3.08642C25.0449 3.08642 25.0481 3.08642 25.0513 3.08642C25.0545 3.08642 25.0577 3.08642 25.0609 3.08642C25.0641 3.08642 25.0673 3.08642 25.0705 3.08642C25.0737 3.08642 25.0769 3.08642 25.0802 3.08642C25.0834 3.08642 25.0866 3.08642 25.0898 3.08642C25.0931 3.08642 25.0963 3.08642 25.0995 3.08642C25.1028 3.08642 25.106 3.08642 25.1093 3.08642C25.1125 3.08642 25.1157 3.08642 25.119 3.08642C25.1223 3.08642 25.1255 3.08642 25.1288 3.08642C25.132 3.08642 25.1353 3.08642 25.1386 3.08642C25.1418 3.08642 25.1451 3.08642 25.1484 3.08642C25.1516 3.08642 25.1549 3.08642 25.1582 3.08642C25.1615 3.08642 25.1648 3.08642 25.1681 3.08642C25.1713 3.08642 25.1746 3.08642 25.1779 3.08642C25.1812 3.08642 25.1845 3.08642 25.1878 3.08642C25.1911 3.08642 25.1945 3.08642 25.1978 3.08642C25.2011 3.08642 25.2044 3.08642 25.2077 3.08642C25.211 3.08642 25.2144 3.08642 25.2177 3.08642C25.221 3.08642 25.2243 3.08642 25.2277 3.08642C25.231 3.08642 25.2344 3.08642 25.2377 3.08642C25.241 3.08642 25.2444 3.08642 25.2477 3.08642C25.2511 3.08642 25.2544 3.08642 25.2578 3.08642C25.2612 3.08642 25.2645 3.08642 25.2679 3.08642C25.2712 3.08642 25.2746 3.08642 25.278 3.08642C25.2814 3.08642 25.2847 3.08642 25.2881 3.08642C25.2915 3.08642 25.2949 3.08642 25.2983 3.08642C25.3017 3.08642 25.305 3.08642 25.3084 3.08642C25.3118 3.08642 25.3152 3.08642 25.3186 3.08642C25.322 3.08642 25.3254 3.08642 25.3288 3.08642C25.3323 3.08642 25.3357 3.08642 25.3391 3.08642C25.3425 3.08642 25.3459 3.08642 25.3494 3.08642C25.3528 3.08642 25.3562 3.08642 25.3596 3.08642C25.3631 3.08642 25.3665 3.08642 25.3699 3.08642C25.3734 3.08642 25.3768 3.08642 25.3803 3.08642C25.3837 3.08642 25.3872 3.08642 25.3906 3.08642C25.3941 3.08642 25.3975 3.08642 25.401 3.08642C25.4045 3.08642 25.4079 3.08642 25.4114 3.08642C25.4149 3.08642 25.4183 3.08642 25.4218 3.08642C25.4253 3.08642 25.4288 3.08642 25.4322 3.08642C25.4357 3.08642 25.4392 3.08642 25.4427 3.08642C25.4462 3.08642 25.4497 3.08642 25.4532 3.08642C25.4567 3.08642 25.4602 3.08642 25.4637 3.08642C25.4672 3.08642 25.4707 3.08642 25.4742 3.08642C25.4777 3.08642 25.4812 3.08642 25.4848 3.08642C25.4883 3.08642 25.4918 3.08642 25.4953 3.08642C25.4989 3.08642 25.5024 3.08642 25.5059 3.08642C25.5095 3.08642 25.513 3.08642 25.5165 3.08642C25.5201 3.08642 25.5236 3.08642 25.5272 3.08642C25.5307 3.08642 25.5343 3.08642 25.5378 3.08642C25.5414 3.08642 25.5449 3.08642 25.5485 3.08642C25.5521 3.08642 25.5556 3.08642 25.5592 3.08642C25.5628 3.08642 25.5664 3.08642 25.5699 3.08642C25.5735 3.08642 25.5771 3.08642 25.5807 3.08642C25.5843 3.08642 25.5879 3.08642 25.5914 3.08642C25.595 3.08642 25.5986 3.08642 25.6022 3.08642C25.6058 3.08642 25.6094 3.08642 25.613 3.08642C25.6166 3.08642 25.6203 3.08642 25.6239 3.08642C25.6275 3.08642 25.6311 3.08642 25.6347 3.08642C25.6383 3.08642 25.642 3.08642 25.6456 3.08642C25.6492 3.08642 25.6528 3.08642 25.6565 3.08642C25.6601 3.08642 25.6638 3.08642 25.6674 3.08642C25.671 3.08642 25.6747 3.08642 25.6783 3.08642C25.682 3.08642 25.6856 3.08642 25.6893 3.08642C25.6929 3.08642 25.6966 3.08642 25.7003 3.08642C25.7039 3.08642 25.7076 3.08642 25.7113 3.08642C25.7149 3.08642 25.7186 3.08642 25.7223 3.08642C25.726 3.08642 25.7297 3.08642 25.7333 3.08642C25.737 3.08642 25.7407 3.08642 25.7444 3.08642C25.7481 3.08642 25.7518 3.08642 25.7555 3.08642C25.7592 3.08642 25.7629 3.08642 25.7666 3.08642C25.7703 3.08642 25.774 3.08642 25.7777 3.08642C25.7814 3.08642 25.7851 3.08642 25.7889 3.08642C25.7926 3.08642 25.7963 3.08642 25.8 3.08642C25.8038 3.08642 25.8075 3.08642 25.8112 3.08642C25.815 3.08642 25.8187 3.08642 25.8224 3.08642C25.8262 3.08642 25.8299 3.08642 25.8337 3.08642C25.8374 3.08642 25.8412 3.08642 25.8449 3.08642C25.8487 3.08642 25.8524 3.08642 25.8562 3.08642C25.86 3.08642 25.8637 3.08642 25.8675 3.08642C25.8713 3.08642 25.875 3.08642 25.8788 3.08642C25.8826 3.08642 25.8864 3.08642 25.8901 3.08642C25.8939 3.08642 25.8977 3.08642 25.9015 3.08642C25.9053 3.08642 25.9091 3.08642 25.9129 3.08642C25.9167 3.08642 25.9205 3.08642 25.9243 3.08642C25.9281 3.08642 25.9319 3.08642 25.9357 3.08642C25.9395 3.08642 25.9433 3.08642 25.9471 3.08642C25.951 3.08642 25.9548 3.08642 25.9586 3.08642C25.9624 3.08642 25.9662 3.08642 25.9701 3.08642C25.9739 3.08642 25.9777 3.08642 25.9816 3.08642C25.9854 3.08642 25.9893 3.08642 25.9931 3.08642C25.9969 3.08642 26.0008 3.08642 26.0046 3.08642C26.0085 3.08642 26.0123 3.08642 26.0162 3.08642C26.0201 3.08642 26.0239 3.08642 26.0278 3.08642C26.0317 3.08642 26.0355 3.08642 26.0394 3.08642C26.0433 3.08642 26.0471 3.08642 26.051 3.08642C26.0549 3.08642 26.0588 3.08642 26.0627 3.08642C26.0665 3.08642 26.0704 3.08642 26.0743 3.08642C26.0782 3.08642 26.0821 3.08642 26.086 3.08642C26.0899 3.08642 26.0938 3.08642 26.0977 3.08642C26.1016 3.08642 26.1055 3.08642 26.1094 3.08642C26.1134 3.08642 26.1173 3.08642 26.1212 3.08642C26.1251 3.08642 26.129 3.08642 26.133 3.08642C26.1369 3.08642 26.1408 3.08642 26.1447 3.08642C26.1487 3.08642 26.1526 3.08642 26.1565 3.08642C26.1605 3.08642 26.1644 3.08642 26.1684 3.08642C26.1723 3.08642 26.1763 3.08642 26.1802 3.08642C26.1842 3.08642 26.1881 3.08642 26.1921 3.08642C26.196 3.08642 26.2 3.08642 26.204 3.08642C26.2079 3.08642 26.2119 3.08642 26.2159 3.08642C26.2199 3.08642 26.2238 3.08642 26.2278 3.08642C26.2318 3.08642 26.2358 3.08642 26.2398 3.08642C26.2437 3.08642 26.2477 3.08642 26.2517 3.08642C26.2557 3.08642 26.2597 3.08642 26.2637 3.08642C26.2677 3.08642 26.2717 3.08642 26.2757 3.08642C26.2797 3.08642 26.2837 3.08642 26.2877 3.08642C26.2918 3.08642 26.2958 3.08642 26.2998 3.08642C26.3038 3.08642 26.3078 3.08642 26.3119 3.08642C26.3159 3.08642 26.3199 3.08642 26.3239 3.08642C26.328 3.08642 26.332 3.08642 26.336 3.08642C26.3401 3.08642 26.3441 3.08642 26.3482 3.08642C26.3522 3.08642 26.3563 3.08642 26.3603 3.08642C26.3644 3.08642 26.3684 3.08642 26.3725 3.08642C26.3765 3.08642 26.3806 3.08642 26.3847 3.08642C26.3887 3.08642 26.3928 3.08642 26.3969 3.08642C26.4009 3.08642 26.405 3.08642 26.4091 3.08642C26.4132 3.08642 26.4172 3.08642 26.4213 3.08642C26.4254 3.08642 26.4295 3.08642 26.4336 3.08642C26.4377 3.08642 26.4418 3.08642 26.4459 3.08642C26.45 3.08642 26.4541 3.08642 26.4582 3.08642C26.4623 3.08642 26.4664 3.08642 26.4705 3.08642C26.4746 3.08642 26.4787 3.08642 26.4828 3.08642C26.4869 3.08642 26.4911 3.08642 26.4952 3.08642C26.4993 3.08642 26.5034 3.08642 26.5076 3.08642C26.5117 3.08642 26.5158 3.08642 26.52 3.08642C26.5241 3.08642 26.5282 3.08642 26.5324 3.08642C26.5365 3.08642 26.5407 3.08642 26.5448 3.08642C26.549 3.08642 26.5531 3.08642 26.5573 3.08642C26.5614 3.08642 26.5656 3.08642 26.5697 3.08642C26.5739 3.08642 26.5781 3.08642 26.5822 3.08642C26.5864 3.08642 26.5906 3.08642 26.5947 3.08642C26.5989 3.08642 26.6031 3.08642 26.6073 3.08642C26.6115 3.08642 26.6156 3.08642 26.6198 3.08642C26.624 3.08642 26.6282 3.08642 26.6324 3.08642C26.6366 3.08642 26.6408 3.08642 26.645 3.08642C26.6492 3.08642 26.6534 3.08642 26.6576 3.08642C26.6618 3.08642 26.666 3.08642 26.6702 3.08642C26.6744 3.08642 26.6786 3.08642 26.6829 3.08642C26.6871 3.08642 26.6913 3.08642 26.6955 3.08642C26.6997 3.08642 26.704 3.08642 26.7082 3.08642C26.7124 3.08642 26.7167 3.08642 26.7209 3.08642C26.7251 3.08642 26.7294 3.08642 26.7336 3.08642C26.7379 3.08642 26.7421 3.08642 26.7464 3.08642C26.7506 3.08642 26.7549 3.08642 26.7591 3.08642C26.7634 3.08642 26.7676 3.08642 26.7719 3.08642C26.7762 3.08642 26.7804 3.08642 26.7847 3.08642C26.789 3.08642 26.7932 3.08642 26.7975 3.08642C26.8018 3.08642 26.806 3.08642 26.8103 3.08642C26.8146 3.08642 26.8189 3.08642 26.8232 3.08642C26.8275 3.08642 26.8318 3.08642 26.836 3.08642C26.8403 3.08642 26.8446 3.08642 26.8489 3.08642C26.8532 3.08642 26.8575 3.08642 26.8618 3.08642C26.8661 3.08642 26.8705 3.08642 26.8748 3.08642C26.8791 3.08642 26.8834 3.08642 26.8877 3.08642C26.892 3.08642 26.8963 3.08642 26.9007 3.08642C26.905 3.08642 26.9093 3.08642 26.9137 3.08642C26.918 3.08642 26.9223 3.08642 26.9266 3.08642C26.931 3.08642 26.9353 3.08642 26.9397 3.08642C26.944 3.08642 26.9484 3.08642 26.9527 3.08642C26.957 3.08642 26.9614 3.08642 26.9658 3.08642C26.9701 3.08642 26.9745 3.08642 26.9788 3.08642C26.9832 3.08642 26.9875 3.08642 26.9919 3.08642C26.9963 3.08642 27.0006 3.08642 27.005 3.08642C27.0094 3.08642 27.0138 3.08642 27.0181 3.08642C27.0225 3.08642 27.0269 3.08642 27.0313 3.08642C27.0357 3.08642 27.0401 3.08642 27.0444 3.08642C27.0488 3.08642 27.0532 3.08642 27.0576 3.08642C27.062 3.08642 27.0664 3.08642 27.0708 3.08642C27.0752 3.08642 27.0796 3.08642 27.084 3.08642C27.0885 3.08642 27.0929 3.08642 27.0973 3.08642C27.1017 3.08642 27.1061 3.08642 27.1105 3.08642C27.1149 3.08642 27.1194 3.08642 27.1238 3.08642C27.1282 3.08642 27.1327 3.08642 27.1371 3.08642C27.1415 3.08642 27.146 3.08642 27.1504 3.08642C27.1548 3.08642 27.1593 3.08642 27.1637 3.08642C27.1682 3.08642 27.1726 3.08642 27.1771 3.08642C27.1815 3.08642 27.186 3.08642 27.1904 3.08642C27.1949 3.08642 27.1993 3.08642 27.2038 3.08642C27.2083 3.08642 27.2127 3.08642 27.2172 3.08642C27.2217 3.08642 27.2261 3.08642 27.2306 3.08642C27.2351 3.08642 27.2395 3.08642 27.244 3.08642C27.2485 3.08642 27.253 3.08642 27.2575 3.08642C27.262 3.08642 27.2664 3.08642 27.2709 3.08642C27.2754 3.08642 27.2799 3.08642 27.2844 3.08642C27.2889 3.08642 27.2934 3.08642 27.2979 3.08642C27.3024 3.08642 27.3069 3.08642 27.3114 3.08642C27.3159 3.08642 27.3205 3.08642 27.325 3.08642C27.3295 3.08642 27.334 3.08642 27.3385 3.08642C27.343 3.08642 27.3476 3.08642 27.3521 3.08642C27.3566 3.08642 27.3611 3.08642 27.3657 3.08642C27.3702 3.08642 27.3747 3.08642 27.3793 3.08642C27.3838 3.08642 27.3884 3.08642 27.3929 3.08642C27.3974 3.08642 27.402 3.08642 27.4065 3.08642C27.4111 3.08642 27.4156 3.08642 27.4202 3.08642C27.4248 3.08642 27.4293 3.08642 27.4339 3.08642C27.4384 3.08642 27.443 3.08642 27.4476 3.08642C27.4521 3.08642 27.4567 3.08642 27.4613 3.08642C27.4658 3.08642 27.4704 3.08642 27.475 3.08642C27.4796 3.08642 27.4842 3.08642 27.4887 3.08642C27.4933 3.08642 27.4979 3.08642 27.5025 3.08642C27.5071 3.08642 27.5117 3.08642 27.5163 3.08642C27.5209 3.08642 27.5255 3.08642 27.5301 3.08642C27.5347 3.08642 27.5393 3.08642 27.5439 3.08642C27.5485 3.08642 27.5531 3.08642 27.5577 3.08642C27.5623 3.08642 27.5669 3.08642 27.5716 3.08642C27.5762 3.08642 27.5808 3.08642 27.5854 3.08642C27.59 3.08642 27.5947 3.08642 27.5993 3.08642C27.6039 3.08642 27.6086 3.08642 27.6132 3.08642C27.6178 3.08642 27.6225 3.08642 27.6271 3.08642C27.6317 3.08642 27.6364 3.08642 27.641 3.08642C27.6457 3.08642 27.6503 3.08642 27.655 3.08642C27.6596 3.08642 27.6643 3.08642 27.6689 3.08642C27.6736 3.08642 27.6783 3.08642 27.6829 3.08642C27.6876 3.08642 27.6922 3.08642 27.6969 3.08642C27.7016 3.08642 27.7062 3.08642 27.7109 3.08642C27.7156 3.08642 27.7203 3.08642 27.7249 3.08642C27.7296 3.08642 27.7343 3.08642 27.739 3.08642C27.7437 3.08642 27.7484 3.08642 27.7531 3.08642C27.7577 3.08642 27.7624 3.08642 27.7671 3.08642C27.7718 3.08642 27.7765 3.08642 27.7812 3.08642C27.7859 3.08642 27.7906 3.08642 27.7953 3.08642C27.8001 3.08642 27.8048 3.08642 27.8095 3.08642C27.8142 3.08642 27.8189 3.08642 27.8236 3.08642C27.8283 3.08642 27.8331 3.08642 27.8378 3.08642C27.8425 3.08642 27.8472 3.08642 27.852 3.08642C27.8567 3.08642 27.8614 3.08642 27.8661 3.08642C27.8709 3.08642 27.8756 3.08642 27.8804 3.08642C27.8851 3.08642 27.8898 3.08642 27.8946 3.08642C27.8993 3.08642 27.9041 3.08642 27.9088 3.08642C27.9136 3.08642 27.9183 3.08642 27.9231 3.08642C27.9278 3.08642 27.9326 3.08642 27.9374 3.08642C27.9421 3.08642 27.9469 3.08642 27.9517 3.08642C27.9564 3.08642 27.9612 3.08642 27.966 3.08642C27.9707 3.08642 27.9755 3.08642 27.9803 3.08642C27.9851 3.08642 27.9898 3.08642 27.9946 3.08642C27.9994 3.08642 28.0042 3.08642 28.009 3.08642C28.0138 3.08642 28.0186 3.08642 28.0234 3.08642C28.0281 3.08642 28.0329 3.08642 28.0377 3.08642C28.0425 3.08642 28.0473 3.08642 28.0521 3.08642C28.0569 3.08642 28.0618 3.08642 28.0666 3.08642C28.0714 3.08642 28.0762 3.08642 28.081 3.08642C28.0858 3.08642 28.0906 3.08642 28.0955 3.08642C28.1003 3.08642 28.1051 3.08642 28.1099 3.08642C28.1147 3.08642 28.1196 3.08642 28.1244 3.08642C28.1292 3.08642 28.1341 3.08642 28.1389 3.08642C28.1437 3.08642 28.1486 3.08642 28.1534 3.08642C28.1583 3.08642 28.1631 3.08642 28.1679 3.08642C28.1728 3.08642 28.1776 3.08642 28.1825 3.08642C28.1873 3.08642 28.1922 3.08642 28.1971 3.08642C28.2019 3.08642 28.2068 3.08642 28.2116 3.08642C28.2165 3.08642 28.2214 3.08642 28.2262 3.08642C28.2311 3.08642 28.236 3.08642 28.2408 3.08642C28.2457 3.08642 28.2506 3.08642 28.2555 3.08642C28.2603 3.08642 28.2652 3.08642 28.2701 3.08642C28.275 3.08642 28.2799 3.08642 28.2848 3.08642C28.2896 3.08642 28.2945 3.08642 28.2994 3.08642C28.3043 3.08642 28.3092 3.08642 28.3141 3.08642C28.319 3.08642 28.3239 3.08642 28.3288 3.08642C28.3337 3.08642 28.3386 3.08642 28.3435 3.08642C28.3484 3.08642 28.3534 3.08642 28.3583 3.08642C28.3632 3.08642 28.3681 3.08642 28.373 3.08642C28.3779 3.08642 28.3829 3.08642 28.3878 3.08642C28.3927 3.08642 28.3976 3.08642 28.4026 3.08642C28.4075 3.08642 28.4124 3.08642 28.4174 3.08642C28.4223 3.08642 28.4272 3.08642 28.4322 3.08642C28.4371 3.08642 28.442 3.08642 28.447 3.08642C28.4519 3.08642 28.4569 3.08642 28.4618 3.08642C28.4668 3.08642 28.4717 3.08642 28.4767 3.08642C28.4816 3.08642 28.4866 3.08642 28.4916 3.08642C28.4965 3.08642 28.5015 3.08642 28.5064 3.08642C28.5114 3.08642 28.5164 3.08642 28.5213 3.08642C28.5263 3.08642 28.5313 3.08642 28.5363 3.08642C28.5412 3.08642 28.5462 3.08642 28.5512 3.08642C28.5562 3.08642 28.5611 3.08642 28.5661 3.08642C28.5711 3.08642 28.5761 3.08642 28.5811 3.08642C28.5861 3.08642 28.5911 3.08642 28.5961 3.08642C28.6011 3.08642 28.6061 3.08642 28.6111 3.08642C28.6161 3.08642 28.6211 3.08642 28.6261 3.08642C28.6311 3.08642 28.6361 3.08642 28.6411 3.08642C28.6461 3.08642 28.6511 3.08642 28.6561 3.08642C28.6611 3.08642 28.6661 3.08642 28.6712 3.08642C28.6762 3.08642 28.6812 3.08642 28.6862 3.08642V0.913575ZM23.5419 0.913575C22.6391 0.913575 21.4238 1.17206 20.407 1.95547C19.3422 2.77598 18.5972 4.09687 18.5972 5.98234H20.77C20.77 4.73416 21.2307 4.06388 21.7333 3.67664C22.284 3.25229 22.9978 3.08642 23.5419 3.08642V0.913575Z" fill="black"/>
<path d="M9.23438 17.082V46.246C9.23438 49.1765 11.61 51.5521 14.5404 51.5521H39.2958C42.2263 51.5521 44.6019 49.1765 44.6019 46.246V17.082" stroke="black" stroke-width="2.17285"/>
<path d="M18.8789 24.9805V43.6517" stroke="black" stroke-width="2.17285" stroke-linecap="round"/>
<path d="M26.1094 24.9805V43.6517" stroke="black" stroke-width="2.17285" stroke-linecap="round"/>
<path d="M34.1523 24.9805V43.6517" stroke="black" stroke-width="2.17285" stroke-linecap="round"/>
</svg>
