<svg width="74" height="49" viewBox="0 0 74 49" fill="none" xmlns="http://www.w3.org/2000/svg">
<path d="M6.44971 4.35231C6.44971 2.54861 7.91189 1.08642 9.7156 1.08642H63.9526C65.7563 1.08642 67.2185 2.54861 67.2185 4.35232V42.4885H6.44971V4.35231Z" stroke="black" stroke-width="2.17285"/>
<path d="M22.1617 26.0994C21.5742 26.8583 20.8039 27.4514 19.9247 27.8216C19.0456 28.1919 18.0873 28.3268 17.1418 28.2135C16.1964 28.1002 15.2955 27.7424 14.526 27.1746C13.7564 26.6068 13.1439 25.848 12.7474 24.9711C12.3509 24.0942 12.1837 23.1288 12.2619 22.1676C12.3401 21.2064 12.661 20.2817 13.1938 19.4824C13.7266 18.6831 14.4533 18.036 15.3043 17.6034C16.1552 17.1708 17.1016 16.9672 18.0527 17.0122L17.7939 22.6293L22.1617 26.0994Z" fill="black"/>
<path d="M19.0288 17.1091C19.9454 17.1612 20.8303 17.4668 21.5874 17.9927C22.3445 18.5187 22.9449 19.2448 23.3231 20.0921C23.7014 20.9395 23.8431 21.8757 23.733 22.7989C23.6228 23.7222 23.2649 24.5972 22.6982 25.3288L18.7475 22.1884L19.0288 17.1091Z" fill="black"/>
<line x1="44.4927" y1="21.0493" x2="60.3031" y2="21.0493" stroke="black" stroke-width="2.17285" stroke-linecap="round"/>
<line x1="14.5278" y1="6.52588" x2="46.2466" y2="6.52588" stroke="black" stroke-width="2.17285" stroke-linecap="round"/>
<line x1="14.5278" y1="12.0601" x2="30.3383" y2="12.0601" stroke="black" stroke-width="2.17285" stroke-linecap="round"/>
<path d="M27.8828 26.6162L36.3031 26.6162" stroke="black" stroke-width="2.17285" stroke-linecap="round"/>
<line x1="44.4927" y1="26.5825" x2="60.3031" y2="26.5825" stroke="black" stroke-width="2.17285" stroke-linecap="round"/>
<line x1="44.4927" y1="32.1157" x2="60.3031" y2="32.1157" stroke="black" stroke-width="2.17285" stroke-linecap="round"/>
<line x1="44.4927" y1="37.6509" x2="60.3031" y2="37.6509" stroke="black" stroke-width="2.17285" stroke-linecap="round"/>
<rect x="1.60596" y="43.1899" width="70.4521" height="4.14236" rx="2.07118" stroke="black" stroke-width="2.17285"/>
<circle cx="14.4789" cy="37.6947" r="1.0375" fill="black"/>
<circle cx="24.7094" cy="37.6947" r="1.0375" fill="black"/>
<circle cx="19.4516" cy="37.6947" r="1.0375" fill="black"/>
<circle cx="29.9711" cy="37.6947" r="1.0375" fill="black"/>
<circle cx="35.2328" cy="37.6947" r="1.0375" fill="black"/>
<circle cx="58.618" cy="6.91972" r="2.075" fill="black"/>
</svg>
